<svg version="1.1" viewBox="0.0 0.0 1600.0 1067.0" fill="none" stroke="none" stroke-linecap="square" stroke-miterlimit="10" xmlns:xlink="http://www.w3.org/1999/xlink" xmlns="http://www.w3.org/2000/svg"><clipPath id="p.0"><path d="m0 0l1600.0 0l0 1067.0l-1600.0 0l0 -1067.0z" clip-rule="nonzero"/></clipPath><g clip-path="url(#p.0)"><path fill="#000000" fill-opacity="0.0" d="m0 0l1600.0 0l0 1067.0l-1600.0 0z" fill-rule="evenodd"/><path fill="#000000" fill-opacity="0.0" d="m296.9991 210.73172l801.0078 0l0 370.80313l-801.0078 0z" fill-rule="evenodd"/><path fill="#90aeec" d="m-0.010498688 0l1600.0 0l0 1066.9921l-1600.0 0z" fill-rule="evenodd"/><path fill="#000000" fill-opacity="0.0" d="m271.84253 231.40158l1056.315 0l0 604.18896l-1056.315 0z" fill-rule="evenodd"/><path fill="#ffffff" d="m495.61066 391.6047q15.734375 18.671875 15.734375 41.859375q-0.53125 26.671875 -18.265625 44.671875q-17.734375 18.0 -43.0625 18.0l-70.140625 0q-18.65625 0 -21.859375 -10.140625q-1.59375 -4.53125 -1.59375 -13.859375l0 -148.0q0 -6.390625 0.390625 -9.328125q0.40625 -2.9375 2.53125 -6.9375q3.734375 -7.1875 20.8125 -7.1875l67.1875 0q24.53125 0 41.0625 17.0625q17.34375 17.328125 17.34375 41.59375q0 17.59375 -10.140625 32.265625zm-31.46875 39.203125q0 -6.40625 -1.46875 -10.140625q-1.453125 -3.734375 -4.921875 -5.328125q-5.34375 -2.140625 -14.9375 -2.140625q-9.59375 0 -14.40625 -3.71875q-4.796875 -3.734375 -4.796875 -15.328125q0 -11.609375 4.9375 -15.34375q4.9375 -3.734375 16.40625 -3.734375q10.65625 0 12.796875 -5.59375q0.796875 -2.9375 0.796875 -9.59375q0 -6.671875 -4.40625 -9.34375q-4.390625 -2.671875 -13.1875 -2.671875l-37.34375 0l0 101.0625l43.734375 0q16.796875 0 16.796875 -18.125zm186.66614 14.390625l4.796875 -3.46875q9.0625 -5.328125 12.796875 -5.328125q8.265625 0 17.875 14.9375q5.859375 9.328125 5.859375 14.9375q0 5.59375 -3.609375 9.328125q-3.59375 3.734375 -8.390625 6.671875q-4.796875 2.921875 -9.203125 5.59375q-4.390625 2.671875 -18.0 6.9375q-13.59375 4.265625 -26.265625 4.265625q-12.65625 0 -25.59375 -3.328125q-12.9375 -3.34375 -26.671875 -11.203125q-13.71875 -7.875 -24.65625 -19.203125q-10.9375 -11.328125 -18.0 -29.0625q-7.0625 -17.734375 -7.0625 -38.53125q0 -20.8125 6.921875 -37.734375q6.9375 -16.9375 17.734375 -28.0q10.796875 -11.0625 24.671875 -18.53125q26.125 -14.40625 52.53125 -14.40625q12.53125 0 25.453125 3.875q12.9375 3.859375 19.609375 7.859375l6.40625 3.734375q4.796875 2.9375 7.453125 4.796875q6.9375 5.609375 6.9375 12.671875q0 7.0625 -5.59375 14.796875q-10.40625 14.40625 -18.671875 14.40625q-4.796875 0 -13.59375 -5.875q-11.203125 -9.0625 -29.875 -9.0625q-17.328125 0 -34.125 12.0q-8.0 5.859375 -13.34375 16.53125q-5.328125 10.671875 -5.328125 24.140625q0 13.453125 5.328125 24.125q5.34375 10.65625 13.609375 16.796875q16.265625 11.734375 33.859375 11.734375q8.265625 0 15.59375 -2.125q7.34375 -2.140625 10.546875 -4.28125zm154.38763 -87.71875q5.078125 1.59375 8.40625 5.46875q3.328125 3.859375 3.328125 12.390625q0 8.53125 -5.0625 18.671875q-5.0625 10.125 -14.671875 10.125q-4.796875 0 -9.203125 -2.125q-4.390625 -2.140625 -11.59375 -2.140625q-7.203125 0 -13.46875 5.078125q-6.265625 5.0625 -6.265625 12.25l0 56.0q0 6.140625 -0.40625 9.203125q-0.390625 3.0625 -2.515625 7.0625q-4.0 6.9375 -20.8125 6.9375q-12.796875 0 -18.390625 -4.53125q-4.265625 -3.734375 -4.796875 -11.46875q0 -2.671875 0 -7.734375l0 -93.59375q0 -6.140625 0.390625 -9.203125q0.40625 -3.0625 2.265625 -6.796875q3.734375 -7.203125 20.796875 -7.203125q16.0 0 20.0 6.140625q2.9375 4.265625 2.9375 8.796875q1.328125 -1.875 3.859375 -4.53125q2.546875 -2.671875 10.8125 -7.203125q8.265625 -4.53125 14.53125 -4.53125q6.265625 0 10.53125 0.671875q4.265625 0.65625 9.328125 2.265625zm157.065 0q15.734375 6.921875 15.734375 16.796875q0 4.796875 -2.140625 9.0625q-2.125 4.265625 -2.125 4.53125l-69.859375 156.2656q-2.140625 5.0625 -3.609375 7.71875q-1.46875 2.671875 -4.671875 5.078125q-3.1875 2.40625 -8.0 2.40625q-4.796875 0 -14.125 -4.0q-15.734375 -6.9375 -15.734375 -16.546875q0 -6.390625 25.59375 -61.06247l-53.0625 -89.328125q-5.328125 -8.796875 -5.328125 -13.0625q0 -8.53125 14.40625 -17.0625q9.0625 -5.34375 14.125 -5.34375q5.0625 0 8.265625 2.140625q3.203125 2.140625 4.671875 4.40625q1.46875 2.265625 14.65625 24.796875q13.203125 22.53125 25.203125 42.0q1.328125 -4.265625 14.390625 -32.9375q13.078125 -28.671875 14.0 -30.53125q0.9375 -1.875 3.078125 -4.53125q3.46875 -4.53125 9.734375 -4.53125q6.265625 0 14.796875 3.734375zm30.404053 177.04684l0 -155.71872q0 -6.140625 0.390625 -9.0625q0.40625 -2.9375 2.265625 -6.671875q3.734375 -7.203125 17.859375 -7.203125q14.140564 0 19.078064 3.609375q4.9375 3.59375 5.734375 10.53125q10.125 -13.875 31.859375 -13.875q21.734375 0 41.203125 20.53125q19.46875 20.53125 19.46875 47.734375q0 27.203125 -19.34375 47.734375q-19.328125 20.53125 -41.203125 20.53125q-21.859375 0 -31.71875 -12.265625l0 53.859344q0 6.140625 -0.40625 9.0625q-0.390625 2.9375 -2.390625 6.796875q-2.0 3.875 -6.8125 5.46875q-4.796814 1.609375 -13.062439 1.609375q-8.265625 0 -13.203125 -1.609375q-4.921875 -1.59375 -6.921875 -5.328125q-2.0 -3.734375 -2.40625 -6.671875q-0.390625 -2.921875 -0.390625 -9.0625zm52.78119 -125.578094q-6.125 7.1875 -6.125 15.71875q0 8.53125 6.265625 15.609375q6.265625 7.0625 16.0 7.0625q9.734375 0 16.53125 -6.9375q6.796875 -6.9375 6.796875 -15.734375q0 -8.796875 -6.40625 -15.859375q-6.390625 -7.0625 -16.65625 -7.0625q-10.265625 0 -16.40625 7.203125zm181.33972 -5.875l-17.328125 -1.0625l0 36.796875q0 7.203125 2.265625 10.40625q2.265625 3.1875 8.53125 3.1875q6.265625 0 9.59375 0.40625q3.328125 0.390625 7.0625 2.53125q6.140625 3.46875 6.140625 17.859375q0 16.796875 -7.46875 20.53125q-4.0 1.875 -7.0625 2.28125q-3.0625 0.390625 -8.9375 0.390625q-27.734375 0 -42.140625 -12.53125q-14.390625 -12.53125 -14.390625 -42.40625l0 -39.453125q-5.0625 0.796875 -10.9375 0.796875q-5.859375 0 -9.734375 -4.53125q-3.859375 -4.53125 -3.859375 -15.46875q0 -10.9375 1.328125 -15.859375q1.34375 -4.9375 3.734375 -7.078125q4.265625 -3.46875 10.671875 -3.46875l8.796875 1.078125l0 -27.46875q0 -6.140625 0.390625 -9.0625q0.40625 -2.9375 2.546875 -6.40625q3.46875 -6.671875 20.53125 -6.671875q18.125 0 21.59375 9.875q1.34375 4.265625 1.34375 13.59375l0 26.140625q11.71875 -1.078125 17.71875 -1.078125q6.0 0 9.0625 0.40625q3.078125 0.40625 7.078125 2.53125q6.9375 3.46875 6.9375 20.53125q0 16.796875 -7.203125 20.53125q-4.0 1.875 -7.078125 2.28125q-3.0625 0.390625 -9.1875 0.390625z" fill-rule="nonzero"/><path fill="#ffffff" d="m693.19885 660.4172q6.9375 14.125 6.9375 31.453125q0 17.328125 -6.9375 31.328125q-6.921875 14.0 -17.859375 22.265625q-22.140625 17.078125 -45.859375 17.078125l-33.34375 0l0 30.125q0 6.140625 -0.40625 9.203125q-0.390625 3.0625 -2.515625 7.0625q-3.734375 7.203125 -20.8125 7.203125q-18.65625 0 -21.859375 -9.875q-1.59375 -4.53125 -1.59375 -13.859375l0 -148.0q0 -6.125 0.390625 -9.1875q0.40625 -3.078125 2.53125 -7.078125q3.734375 -7.1875 20.8125 -7.1875l57.0625 0q23.453125 0 45.59375 17.0625q10.9375 8.265625 17.859375 22.40625zm-63.453125 54.921875q8.0 0 15.71875 -5.859375q7.734375 -5.875 7.734375 -17.609375q0 -11.734375 -7.734375 -17.734375q-7.71875 -6.0 -15.984375 -6.0l-33.34375 0l0 47.203125l33.609375 0zm208.51105 -87.203125q2.140625 -4.0 7.203125 -5.59375q5.078125 -1.59375 12.796875 -1.59375q7.734375 0 12.265625 1.328125q4.546875 1.328125 6.9375 3.203125q2.40625 1.859375 3.734375 5.328125q1.328125 4.53125 1.328125 13.859375l0 148.0q0 6.140625 -0.40625 9.203125q-0.390625 3.0625 -2.515625 7.0625q-3.734375 7.203125 -20.796875 7.203125q-18.671875 0 -21.875 -9.875q-1.59375 -4.53125 -1.59375 -13.859375l0 -54.125l-70.671875 0l0 54.390625q0 6.140625 -0.40625 9.203125q-0.390625 3.0625 -2.515625 7.0625q-3.734375 7.203125 -20.8125 7.203125q-18.65625 0 -21.859375 -9.875q-1.59375 -4.53125 -1.59375 -13.859375l0 -148.0q0 -6.125 0.390625 -9.1875q0.40625 -3.078125 2.53125 -7.078125q3.734375 -7.1875 20.8125 -7.1875q18.65625 0 22.125 9.859375q1.328125 4.53125 1.328125 13.859375l0 54.40625l70.671875 0l0 -54.671875q0 -6.125 0.390625 -9.1875q0.40625 -3.078125 2.53125 -7.078125zm209.86139 32.28125q6.9375 14.125 6.9375 31.453125q0 17.328125 -6.9375 31.328125q-6.921875 14.0 -17.859375 22.265625q-22.140625 17.078125 -45.859375 17.078125l-33.34375 0l0 30.125q0 6.140625 -0.40625 9.203125q-0.390625 3.0625 -2.515625 7.0625q-3.734375 7.203125 -20.8125 7.203125q-18.65625 0 -21.859375 -9.875q-1.59375 -4.53125 -1.59375 -13.859375l0 -148.0q0 -6.125 0.390625 -9.1875q0.40625 -3.078125 2.53125 -7.078125q3.734375 -7.1875 20.8125 -7.1875l57.0625 0q23.453125 0 45.59375 17.0625q10.9375 8.265625 17.859375 22.40625zm-63.453125 54.921875q8.0 0 15.71875 -5.859375q7.734375 -5.875 7.734375 -17.609375q0 -11.734375 -7.734375 -17.734375q-7.71875 -6.0 -15.984375 -6.0l-33.34375 0l0 47.203125l33.609375 0z" fill-rule="nonzero"/></g></svg>