<svg version="1.1" viewBox="0.0 0.0 436.6062992125984 290.43569553805776" fill="none" stroke="none" stroke-linecap="square" stroke-miterlimit="10" xmlns:xlink="http://www.w3.org/1999/xlink" xmlns="http://www.w3.org/2000/svg"><clipPath id="p.0"><path d="m0 0l436.6063 0l0 290.4357l-436.6063 0l0 -290.4357z" clip-rule="nonzero"/></clipPath><g clip-path="url(#p.0)"><path fill="#000000" fill-opacity="0.0" d="m0 0l436.6063 0l0 290.4357l-436.6063 0z" fill-rule="evenodd"/><path fill="#000000" fill-opacity="0.0" d="m-30.60105 -37.188976l486.86615 0l0 57.6063l-486.86615 0z" fill-rule="evenodd"/><path fill="#ffffff" d="m26.171808 99.81102l-21.328125 0l0 -93.328125l16.265625 0q17.593748 0 26.531248 6.46875q8.9375 6.46875 8.9375 18.203125q0 13.328125 -11.203125 19.59375q16.265625 6.125 16.265625 23.062496q0 12.0 -8.8125 19.0q-8.796875 7.0 -26.656248 7.0zm0 -4.0q6.265623 0 11.468748 -1.0q5.203125 -1.0 9.9375 -3.328125q4.734375 -2.34375 7.390625 -6.875q2.671875 -4.53125 2.671875 -10.796875q0 -14.265621 -13.734375 -19.328121l-8.0 -2.9375l7.46875 -4.265625q9.203125 -5.0625 9.203125 -16.125q0 -20.671875 -31.468748 -20.671875l-12.265625 0l0 85.328125l17.328125 0zm113.72828 -13.0625q-3.59375 8.796875 -10.140625 13.59375q-6.5312576 4.796875 -19.593758 4.796875q-16.390625 0 -23.734375 -10.0625q-7.328125 -10.0625 -7.328125 -31.390621l0 -13.078125q0 -21.328125 7.328125 -31.390625q7.34375 -10.0625 23.734375 -10.0625q13.0625 0 19.593758 4.796875q6.546875 4.796875 10.140625 13.59375l-3.59375 1.734375q-3.078125 -7.734375 -8.671883 -11.921875q-5.59375 -4.203125 -17.46875 -4.203125q-6.53125 0 -11.203125 1.671875q-4.65625 1.65625 -8.390625 5.65625q-3.734375 4.0 -5.609375 11.53125q-1.859375 7.53125 -1.859375 18.59375l0 13.078125q0 11.062496 1.859375 18.593746q1.875 7.53125 5.609375 11.53125q3.734375 4.0 8.390625 5.671875q4.671875 1.65625 11.203125 1.65625q11.875 0 17.46875 -4.1875q5.5937576 -4.203125 8.671883 -11.9375l3.59375 1.734375zm30.794907 13.0625l36.796875 0l-16.125 -44.26562l7.46875 -4.265625q9.203125 -5.0625 9.203125 -16.125q0 -20.671875 -31.46875 -20.671875l-12.265625 0l0 89.328125l-4.0 0l0 -93.328125l16.265625 0q17.59375 0 26.53125 6.46875q8.9375 6.46875 8.9375 18.203125q0 13.328125 -11.203125 19.59375l-4.53125 2.53125l16.921875 46.531246l-42.53125 0l0 -4.0zm67.471115 -89.328125l54.0 0l-33.328125 53.328125l0 39.999996l-4.0 0l0 -39.999996l-33.343735 -53.328125l4.6718597 0l30.671875 48.9375l28.125 -44.9375l-46.796875 0l0 -4.0zm101.32846 48.53125l-2.0 -3.46875l7.46875 -4.265625q9.203125 -5.0625 9.203125 -16.125q0 -20.671875 -31.46875 -20.671875l-12.265625 0l0 89.328125l-4.0 0l0 -93.328125l16.265625 0q17.59375 0 26.53125 6.46875q8.9375 6.46875 8.9375 18.203125q0 13.328125 -11.203125 19.59375l-7.46875 4.265625zm92.52124 -48.53125l0 4.0l-31.328125 0l0 89.328125l-4.0 0l0 -89.328125l-31.328125 0l0 -4.0l66.65625 0z" fill-rule="nonzero"/><path fill="#000000" fill-opacity="0.0" d="m-23.622047 71.91601l477.70078 0l0 57.6063l-477.70078 0z" fill-rule="evenodd"/><path fill="#ffffff" d="m49.42408 142.77477q-5.109375 -1.59375 -12.65625 -1.59375q-7.53125 0 -12.65625 1.59375q-5.109375 1.578125 -9.40625 5.875q-4.296875 4.296875 -6.40625 12.515625q-2.109375 8.203125 -2.109375 20.703125q0 12.5 2.109375 20.71875q2.109375 8.203125 6.40625 12.5q4.296875 4.296875 9.40625 5.875q5.125 1.578125 12.65625 1.578125q7.546875 0 12.65625 -1.578125q5.125 -1.578125 9.421875 -5.875q4.296875 -4.296875 6.40625 -12.5q2.109375 -8.21875 2.109375 -20.71875q0 -12.5 -2.109375 -20.703125q-2.109375 -8.21875 -6.40625 -12.515625q-4.296875 -4.296875 -9.421875 -5.875zm14.3125 73.59375q-8.125 10.6875 -26.96875 10.6875q-18.828125 0 -26.96875 -10.6875q-8.125 -10.703125 -8.125 -34.5q0 -23.8125 8.125 -34.5q8.140625 -10.703125 26.96875 -10.703125q18.84375 0 26.96875 10.703125q8.140625 10.6875 8.140625 34.5q0 23.796875 -8.140625 34.5zm33.000793 9.1875l0 -87.375l4.515625 0l49.125008 79.09375l0 -79.09375l4.515625 0l0 87.375l-4.515625 0l-49.125008 -79.25l0 79.25l-4.515625 0zm137.09048 -4.515625l0 4.515625l-50.312485 0l0 -87.375l4.515625 0l0 82.859375l45.79686 0zm17.332153 -82.859375l4.515625 0l0 87.375l-4.515625 0l0 -87.375zm33.14435 87.375l0 -87.375l4.515625 0l49.125 79.09375l0 -79.09375l4.515625 0l0 87.375l-4.515625 0l-49.125 -79.25l0 79.25l-4.515625 0zm145.23114 -8.890625q-8.28125 10.390625 -27.125 10.390625q-18.828125 0 -26.96875 -10.6875q-8.125 -10.703125 -8.125 -34.5q0 -23.8125 8.125 -34.5q8.140625 -10.703125 26.984375 -10.703125q21.84375 0 29.671875 14.3125l-36.90625 30.890625l-7.078125 0l38.109375 -31.796875q-6.625 -8.890625 -23.796875 -8.890625q-7.546875 0 -12.671875 1.59375q-5.109375 1.578125 -9.40625 5.875q-4.296875 4.296875 -6.40625 12.515625q-2.109375 8.203125 -2.109375 20.703125q0 12.5 2.109375 20.71875q2.109375 8.203125 6.40625 12.5q4.296875 4.296875 9.40625 5.875q5.125 1.578125 12.671875 1.578125q17.171875 0 23.796875 -8.890625l3.3125 3.015625z" fill-rule="nonzero"/><path fill="#000000" fill-opacity="0.0" d="m-35.576115 234.22572l501.6063 0l0 115.2126l-501.6063 0z" fill-rule="evenodd"/><path fill="#ffffff" d="m8.104075 281.62573q-1.3125 0 -2.015625 -0.703125q-0.703125 -0.703125 -0.703125 -2.015625l0 -22.765625q0 -1.3125153 0.703125 -2.0156403q0.703125 -0.703125 2.015625 -0.703125l9.609376 0q2.953125 0 5.03125 0.890625q2.078125 0.875 3.171875 2.5156403q1.109375 1.640625 1.109375 3.921875q0 2.5625 -1.484375 4.328125q-1.46875 1.75 -4.03125 2.34375l0 -0.59375q2.953125 0.4375 4.59375 2.234375q1.640625 1.796875 1.640625 4.6875q0 3.75 -2.546875 5.8125q-2.53125 2.0625 -7.046875 2.0625l-10.046876 0zm2.203125 -3.875l7.203126 0q2.71875 0 4.0 -1.0625q1.28125 -1.0625 1.28125 -3.1875q0 -2.15625 -1.28125 -3.1875q-1.28125 -1.046875 -4.0 -1.046875l-7.203126 0l0 8.484375zm0 -12.359375l6.515626 0q2.640625 0 3.9375 -1.015625q1.3125 -1.03125 1.3125 -3.03125q0 -2.0 -1.3125 -3.015625q-1.296875 -1.015625 -3.9375 -1.015625l-6.515626 0l0 8.078125zm42.719345 16.546875q-1.234375 0 -1.90625 -0.6875q-0.65625 -0.703125 -0.65625 -1.984375l0 -12.15625l1.078125 3.078125l-9.640625 -13.5625q-0.515625 -0.71876526 -0.453125 -1.5312653q0.0625 -0.828125 0.65625 -1.40625q0.609375 -0.578125 1.6875 -0.578125q0.796875 0 1.453125 0.40625q0.65625 0.390625 1.265625 1.234375l7.15625 10.156265l-1.125 0l7.203125 -10.156265q0.640625 -0.890625 1.234375 -1.265625q0.609375 -0.375 1.484375 -0.375q1.046875 0 1.6249962 0.546875q0.578125 0.53125 0.59375 1.328125q0.03125 0.796875 -0.578125 1.6875153l-9.562496 13.515625l1.046875 -3.078125l0 12.15625q0 2.671875 -2.5625 2.671875zm39.83746 -0.3125q-1.3125 0 -2.015625 -0.703125q-0.703125 -0.703125 -0.703125 -2.015625l0 -22.765625q0 -1.3125153 0.703125 -2.0156403q0.703125 -0.703125 2.015625 -0.703125l14.28125 0q1.0 0 1.53125 0.53125q0.546875 0.515625 0.546875 1.46875q0 1.0000153 -0.546875 1.5468903q-0.53125 0.53125 -1.53125 0.53125l-12.078125 0l0 7.765625l11.203125 0q1.03125 0 1.546875 0.53125q0.53125 0.515625 0.53125 1.515625q0 1.0 -0.53125 1.515625q-0.515625 0.515625 -1.546875 0.515625l-11.203125 0l0 8.203125l12.078125 0q1.0 0 1.53125 0.515625q0.546875 0.515625 0.546875 1.515625q0 1.0 -0.546875 1.53125q-0.53125 0.515625 -1.53125 0.515625l-14.28125 0zm41.71998 0.40625q-1.75 0 -3.515625 -0.265625q-1.765625 -0.265625 -3.3281326 -0.796875q-1.546875 -0.546875 -2.796875 -1.34375q-0.71875 -0.484375 -1.0 -1.15625q-0.28125 -0.6875 -0.1875 -1.34375q0.109375 -0.65625 0.53125 -1.15625q0.421875 -0.5 1.0625 -0.625q0.640625 -0.125 1.390625 0.359375q1.7656326 1.046875 3.7187576 1.53125q1.96875 0.46875 4.125 0.46875q3.15625 0 4.59375 -1.0625q1.453125 -1.0625 1.453125 -2.734375q0 -1.40625 -1.03125 -2.203125q-1.015625 -0.796875 -3.5 -1.3125l-4.390625 -0.921875q-3.7968826 -0.796875 -5.6562576 -2.703125q-1.859375 -1.90625 -1.859375 -5.015625q0 -1.96875 0.796875 -3.5625q0.796875 -1.609375 2.25 -2.7656403q1.4687576 -1.15625 3.4843826 -1.765625q2.015625 -0.625 4.46875 -0.625q2.390625 0 4.546875 0.59375q2.171875 0.59375 3.890625 1.765625q0.640625 0.4375 0.859375 1.0781403q0.21875 0.640625 0.09375 1.265625q-0.109375 0.609375 -0.5625 1.046875q-0.4375 0.4375 -1.09375 0.53125q-0.65625 0.078125 -1.5 -0.40625q-1.484375 -0.84375 -3.0 -1.203125q-1.515625 -0.359375 -3.28125 -0.359375q-1.84375 0 -3.171875 0.53125q-1.3125 0.515625 -2.015625 1.453125q-0.6875 0.9375 -0.6875 2.21875q0 1.4375 0.953125 2.296875q0.96875 0.859375 3.28125 1.34375l4.359375 0.921875q3.96875 0.828125 5.90625 2.640625q1.9375 1.796875 1.9375 4.796875q0 1.921875 -0.78125 3.484375q-0.78125 1.546875 -2.25 2.671875q-1.453125 1.125 -3.5 1.734375q-2.03125 0.59375 -4.59375 0.59375zm36.07997 0q-1.75 0 -3.515625 -0.265625q-1.765625 -0.265625 -3.328125 -0.796875q-1.546875 -0.546875 -2.796875 -1.34375q-0.71875 -0.484375 -1.0 -1.15625q-0.28125 -0.6875 -0.1875 -1.34375q0.109375 -0.65625 0.53125 -1.15625q0.421875 -0.5 1.0625 -0.625q0.640625 -0.125 1.390625 0.359375q1.765625 1.046875 3.71875 1.53125q1.96875 0.46875 4.125 0.46875q3.15625 0 4.59375 -1.0625q1.453125 -1.0625 1.453125 -2.734375q0 -1.40625 -1.03125 -2.203125q-1.015625 -0.796875 -3.5 -1.3125l-4.390625 -0.921875q-3.796875 -0.796875 -5.65625 -2.703125q-1.859375 -1.90625 -1.859375 -5.015625q0 -1.96875 0.796875 -3.5625q0.796875 -1.609375 2.25 -2.7656403q1.46875 -1.15625 3.484375 -1.765625q2.015625 -0.625 4.46875 -0.625q2.390625 0 4.546875 0.59375q2.171875 0.59375 3.890625 1.765625q0.640625 0.4375 0.859375 1.0781403q0.21875 0.640625 0.09375 1.265625q-0.109375 0.609375 -0.5625 1.046875q-0.4375 0.4375 -1.09375 0.53125q-0.65625 0.078125 -1.5 -0.40625q-1.484375 -0.84375 -3.0 -1.203125q-1.515625 -0.359375 -3.28125 -0.359375q-1.84375 0 -3.171875 0.53125q-1.3125 0.515625 -2.015625 1.453125q-0.6875 0.9375 -0.6875 2.21875q0 1.4375 0.953125 2.296875q0.96875 0.859375 3.28125 1.34375l4.359375 0.921875q3.96875 0.828125 5.90625 2.640625q1.9375 1.796875 1.9375 4.796875q0 1.921875 -0.78125 3.484375q-0.78125 1.546875 -2.25 2.671875q-1.453125 1.125 -3.5 1.734375q-2.03125 0.59375 -4.59375 0.59375zm29.079971 -0.40625q-1.3125 0 -2.015625 -0.703125q-0.703125 -0.703125 -0.703125 -2.015625l0 -22.765625q0 -1.3125153 0.703125 -2.0156403q0.703125 -0.703125 2.015625 -0.703125l14.28125 0q1.0 0 1.53125 0.53125q0.546875 0.515625 0.546875 1.46875q0 1.0000153 -0.546875 1.5468903q-0.53125 0.53125 -1.53125 0.53125l-12.078125 0l0 7.765625l11.203125 0q1.03125 0 1.546875 0.53125q0.53125 0.515625 0.53125 1.515625q0 1.0 -0.53125 1.515625q-0.515625 0.515625 -1.546875 0.515625l-11.203125 0l0 8.203125l12.078125 0q1.0 0 1.53125 0.515625q0.546875 0.515625 0.546875 1.515625q0 1.0 -0.546875 1.53125q-0.53125 0.515625 -1.53125 0.515625l-14.28125 0zm33.923096 0.203125q-1.359375 0 -2.1875 -0.84375q-0.8125 -0.84375 -0.8125 -2.15625q0 -1.28125 0.8125 -2.09375q0.828125 -0.828125 2.1875 -0.828125q1.40625 0 2.171875 0.828125q0.78125 0.8125 0.78125 2.09375q0 1.3125 -0.78125 2.15625q-0.765625 0.84375 -2.171875 0.84375zm28.19748 0.109375q-1.234375 0 -1.90625 -0.6875q-0.65625 -0.703125 -0.65625 -1.9375l0 -21.609375l-7.796875 0q-1.03125 0 -1.625 -0.578125q-0.578125 -0.578125 -0.578125 -1.5781403q0 -1.046875 0.578125 -1.578125q0.59375 -0.546875 1.625 -0.546875l20.71875 0q1.046875 0 1.625 0.546875q0.578125 0.53125 0.578125 1.578125q0 1.0000153 -0.578125 1.5781403q-0.578125 0.578125 -1.625 0.578125l-7.796875 0l0 21.609375q0 1.234375 -0.640625 1.9375q-0.640625 0.6875 -1.921875 0.6875zm38.961243 0.09375q-4.078125 0 -7.140625 -1.796875q-3.0625 -1.8125 -4.75 -5.0625q-1.671875 -3.265625 -1.671875 -7.671875q0 -3.3125 0.953125 -5.96875q0.96875 -2.671875 2.75 -4.5625q1.78125 -1.9062653 4.28125 -2.9218903q2.5 -1.015625 5.578125 -1.015625q4.125 0 7.15625 1.78125q3.046875 1.7656403 4.71875 5.0156403q1.6875 3.234375 1.6875 7.640625q0 3.3125 -0.96875 6.0q-0.953125 2.671875 -2.734375 4.59375q-1.78125 1.921875 -4.28125 2.953125q-2.5 1.015625 -5.578125 1.015625zm0 -4.40625q2.59375 0 4.40625 -1.203125q1.828125 -1.203125 2.8125 -3.46875q0.984375 -2.28125 0.984375 -5.453125q0 -4.796875 -2.140625 -7.4375q-2.140625 -2.640625 -6.0625 -2.640625q-2.5625 0 -4.40625 1.1875q-1.828125 1.171875 -2.8125 3.4375q-0.984375 2.265625 -0.984375 5.453125q0 4.765625 2.15625 7.453125q2.171875 2.671875 6.046875 2.671875zm42.23993 4.40625q-4.078125 0 -7.140625 -1.796875q-3.0625 -1.8125 -4.75 -5.0625q-1.671875 -3.265625 -1.671875 -7.671875q0 -3.3125 0.953125 -5.96875q0.96875 -2.671875 2.75 -4.5625q1.78125 -1.9062653 4.28125 -2.9218903q2.5 -1.015625 5.578125 -1.015625q4.125 0 7.15625 1.78125q3.046875 1.7656403 4.71875 5.0156403q1.6875 3.234375 1.6875 7.640625q0 3.3125 -0.96875 6.0q-0.953125 2.671875 -2.734375 4.59375q-1.78125 1.921875 -4.28125 2.953125q-2.5 1.015625 -5.578125 1.015625zm0 -4.40625q2.59375 0 4.40625 -1.203125q1.828125 -1.203125 2.8125 -3.46875q0.984375 -2.28125 0.984375 -5.453125q0 -4.796875 -2.140625 -7.4375q-2.140625 -2.640625 -6.0625 -2.640625q-2.5625 0 -4.40625 1.1875q-1.828125 1.171875 -2.8125 3.4375q-0.984375 2.265625 -0.984375 5.453125q0 4.765625 2.15625 7.453125q2.171875 2.671875 6.046875 2.671875zm32.20874 4.0q-1.25 0 -1.9375 -0.703125q-0.671875 -0.703125 -0.671875 -1.9375l0 -23.07814q0 -1.28125 0.65625 -1.9375q0.671875 -0.65625 1.90625 -0.65625q1.234375 0 1.890625 0.65625q0.671875 0.65625 0.671875 1.9375l0 21.35939l11.59375 0q1.078125 0 1.65625 0.5625q0.59375 0.5625 0.59375 1.59375q0 1.046875 -0.59375 1.625q-0.578125 0.578125 -1.65625 0.578125l-14.109375 0zm40.42932 0.40625q-1.75 0 -3.515625 -0.265625q-1.765625 -0.265625 -3.328125 -0.796875q-1.546875 -0.546875 -2.796875 -1.34375q-0.71875 -0.484375 -1.0 -1.15625q-0.28125 -0.6875 -0.1875 -1.34375q0.109375 -0.65625 0.53125 -1.15625q0.421875 -0.5 1.0625 -0.625q0.640625 -0.125 1.390625 0.359375q1.765625 1.046875 3.71875 1.53125q1.96875 0.46875 4.125 0.46875q3.15625 0 4.59375 -1.0625q1.453125 -1.0625 1.453125 -2.734375q0 -1.40625 -1.03125 -2.203125q-1.015625 -0.796875 -3.5 -1.3125l-4.390625 -0.921875q-3.796875 -0.796875 -5.65625 -2.703125q-1.859375 -1.90625 -1.859375 -5.015625q0 -1.96875 0.796875 -3.5625q0.796875 -1.609375 2.25 -2.7656403q1.46875 -1.15625 3.484375 -1.765625q2.015625 -0.625 4.46875 -0.625q2.390625 0 4.546875 0.59375q2.171875 0.59375 3.890625 1.765625q0.640625 0.4375 0.859375 1.0781403q0.21875 0.640625 0.09375 1.265625q-0.109375 0.609375 -0.5625 1.046875q-0.4375 0.4375 -1.09375 0.53125q-0.65625 0.078125 -1.5 -0.40625q-1.484375 -0.84375 -3.0 -1.203125q-1.515625 -0.359375 -3.28125 -0.359375q-1.84375 0 -3.171875 0.53125q-1.3125 0.515625 -2.015625 1.453125q-0.6875 0.9375 -0.6875 2.21875q0 1.4375 0.953125 2.296875q0.96875 0.859375 3.28125 1.34375l4.359375 0.921875q3.96875 0.828125 5.90625 2.640625q1.9375 1.796875 1.9375 4.796875q0 1.921875 -0.78125 3.484375q-0.78125 1.546875 -2.25 2.671875q-1.453125 1.125 -3.5 1.734375q-2.03125 0.59375 -4.59375 0.59375z" fill-rule="nonzero"/></g></svg>